<?xml version="1.0" encoding="utf-8" standalone="no"?>
<!DOCTYPE svg PUBLIC "-//W3C//DTD SVG 1.1//EN"
  "http://www.w3.org/Graphics/SVG/1.1/DTD/svg11.dtd">
<svg xmlns:xlink="http://www.w3.org/1999/xlink" width="864pt" height="432pt" viewBox="0 0 864 432" xmlns="http://www.w3.org/2000/svg" version="1.1">
 <metadata>
  <rdf:RDF xmlns:dc="http://purl.org/dc/elements/1.1/" xmlns:cc="http://creativecommons.org/ns#" xmlns:rdf="http://www.w3.org/1999/02/22-rdf-syntax-ns#">
   <cc:Work>
    <dc:type rdf:resource="http://purl.org/dc/dcmitype/StillImage"/>
    <dc:date>2023-04-27T20:27:03.492692</dc:date>
    <dc:format>image/svg+xml</dc:format>
    <dc:creator>
     <cc:Agent>
      <dc:title>Matplotlib v3.6.0, https://matplotlib.org/</dc:title>
     </cc:Agent>
    </dc:creator>
   </cc:Work>
  </rdf:RDF>
 </metadata>
 <defs>
  <style type="text/css">*{stroke-linejoin: round; stroke-linecap: butt}</style>
 </defs>
 <g id="figure_1">
  <g id="patch_1">
   <path d="M 0 432 
L 864 432 
L 864 0 
L 0 0 
z
" style="fill: #ffffff"/>
  </g>
  <g id="axes_1">
   <g id="patch_2">
    <path d="M 108 378 
L 777.6 378 
L 777.6 51.84 
L 108 51.84 
z
" style="fill: #ffffff"/>
   </g>
   <g id="matplotlib.axis_1">
    <g id="xtick_1">
     <g id="text_1">
      <!-- 2015-09 -->
      <g style="fill: #262626" transform="translate(119.186364 395.019531) scale(0.11 -0.11)">
       <defs>
        <path id="SimHei-32" d="M 2850 100 
L 300 100 
L 300 500 
Q 450 900 712 1237 
Q 975 1575 1475 2000 
Q 1850 2325 2012 2600 
Q 2175 2875 2175 3200 
Q 2175 3525 2037 3737 
Q 1900 3950 1600 3950 
Q 1350 3950 1162 3725 
Q 975 3500 975 2925 
L 400 2925 
Q 425 3650 737 4037 
Q 1050 4425 1625 4425 
Q 2175 4425 2475 4087 
Q 2775 3750 2775 3175 
Q 2775 2700 2500 2350 
Q 2225 2000 1825 1650 
Q 1375 1250 1200 1050 
Q 1025 850 875 575 
L 2850 575 
L 2850 100 
z
" transform="scale(0.015625)"/>
        <path id="SimHei-30" d="M 2975 2250 
Q 2975 1350 2650 700 
Q 2325 50 1600 50 
Q 875 50 537 700 
Q 200 1350 200 2250 
Q 200 3150 537 3787 
Q 875 4425 1600 4425 
Q 2325 4425 2650 3787 
Q 2975 3150 2975 2250 
z
M 2375 2250 
Q 2375 3050 2187 3500 
Q 2000 3950 1600 3950 
Q 1200 3950 1000 3500 
Q 800 3050 800 2250 
Q 800 1450 1000 987 
Q 1200 525 1600 525 
Q 2000 525 2187 987 
Q 2375 1450 2375 2250 
z
" transform="scale(0.015625)"/>
        <path id="SimHei-31" d="M 1950 100 
L 1375 100 
L 1375 3425 
L 625 3425 
L 625 3725 
Q 1075 3725 1325 3900 
Q 1575 4075 1650 4425 
L 1950 4425 
L 1950 100 
z
" transform="scale(0.015625)"/>
        <path id="SimHei-35" d="M 2825 1650 
Q 2825 900 2462 475 
Q 2100 50 1500 50 
Q 975 50 637 400 
Q 300 750 275 1350 
L 850 1350 
Q 850 975 1025 750 
Q 1200 525 1525 525 
Q 1850 525 2037 800 
Q 2225 1075 2225 1650 
Q 2225 2150 2062 2387 
Q 1900 2625 1625 2625 
Q 1400 2625 1237 2525 
Q 1075 2425 925 2175 
L 425 2175 
L 575 4375 
L 2725 4375 
L 2725 3900 
L 1050 3900 
L 950 2750 
Q 1100 2900 1275 2975 
Q 1450 3050 1750 3050 
Q 2225 3050 2525 2687 
Q 2825 2325 2825 1650 
z
" transform="scale(0.015625)"/>
        <path id="SimHei-2d" d="M 3000 2100 
L 150 2100 
L 150 2500 
L 3000 2500 
L 3000 2100 
z
" transform="scale(0.015625)"/>
        <path id="SimHei-39" d="M 2825 2300 
Q 2825 1275 2462 662 
Q 2100 50 1425 50 
Q 950 50 662 400 
Q 375 750 375 1175 
L 950 1175 
Q 950 925 1087 725 
Q 1225 525 1450 525 
Q 1825 525 2012 950 
Q 2200 1375 2250 2200 
Q 2125 1925 1900 1775 
Q 1675 1625 1400 1625 
Q 925 1625 625 1975 
Q 325 2325 325 2975 
Q 325 3625 625 4025 
Q 925 4425 1525 4425 
Q 2125 4425 2475 3925 
Q 2825 3425 2825 2300 
z
M 2200 2875 
Q 2200 3425 2012 3700 
Q 1825 3975 1500 3975 
Q 1275 3975 1100 3762 
Q 925 3550 925 2975 
Q 925 2550 1062 2312 
Q 1200 2075 1500 2075 
Q 1825 2075 2012 2300 
Q 2200 2525 2200 2875 
z
" transform="scale(0.015625)"/>
       </defs>
       <use xlink:href="#SimHei-32"/>
       <use xlink:href="#SimHei-30" x="50"/>
       <use xlink:href="#SimHei-31" x="100"/>
       <use xlink:href="#SimHei-35" x="150"/>
       <use xlink:href="#SimHei-2d" x="200"/>
       <use xlink:href="#SimHei-30" x="250"/>
       <use xlink:href="#SimHei-39" x="300"/>
      </g>
     </g>
    </g>
    <g id="xtick_2">
     <g id="text_2">
      <!-- 2015-12 -->
      <g style="fill: #262626" transform="translate(166.011538 395.019531) scale(0.11 -0.11)">
       <use xlink:href="#SimHei-32"/>
       <use xlink:href="#SimHei-30" x="50"/>
       <use xlink:href="#SimHei-31" x="100"/>
       <use xlink:href="#SimHei-35" x="150"/>
       <use xlink:href="#SimHei-2d" x="200"/>
       <use xlink:href="#SimHei-31" x="250"/>
       <use xlink:href="#SimHei-32" x="300"/>
      </g>
     </g>
    </g>
    <g id="xtick_3">
     <g id="text_3">
      <!-- 2016-03 -->
      <g style="fill: #262626" transform="translate(212.836713 395.019531) scale(0.11 -0.11)">
       <defs>
        <path id="SimHei-36" d="M 2850 1550 
Q 2850 850 2550 450 
Q 2250 50 1650 50 
Q 1050 50 700 550 
Q 350 1050 350 2175 
Q 350 3200 712 3812 
Q 1075 4425 1750 4425 
Q 2225 4425 2512 4075 
Q 2800 3725 2800 3300 
L 2225 3300 
Q 2225 3550 2087 3750 
Q 1950 3950 1725 3950 
Q 1350 3950 1150 3562 
Q 950 3175 925 2375 
Q 1100 2700 1300 2825 
Q 1500 2950 1775 2950 
Q 2250 2950 2550 2575 
Q 2850 2200 2850 1550 
z
M 2250 1550 
Q 2250 2000 2100 2250 
Q 1950 2500 1675 2500 
Q 1350 2500 1162 2250 
Q 975 2000 975 1650 
Q 975 1100 1162 800 
Q 1350 500 1675 500 
Q 1900 500 2075 725 
Q 2250 950 2250 1550 
z
" transform="scale(0.015625)"/>
        <path id="SimHei-33" d="M 2825 1300 
Q 2825 725 2462 387 
Q 2100 50 1550 50 
Q 1000 50 637 387 
Q 275 725 275 1425 
L 850 1425 
Q 850 950 1037 737 
Q 1225 525 1550 525 
Q 1875 525 2050 725 
Q 2225 925 2225 1350 
Q 2225 1700 2037 1900 
Q 1850 2100 1375 2100 
L 1375 2525 
Q 1775 2525 1962 2725 
Q 2150 2925 2150 3325 
Q 2150 3625 2012 3800 
Q 1875 3975 1575 3975 
Q 1275 3975 1112 3762 
Q 950 3550 925 3150 
L 375 3150 
Q 425 3725 737 4075 
Q 1050 4425 1575 4425 
Q 2125 4425 2425 4112 
Q 2725 3800 2725 3350 
Q 2725 2925 2575 2687 
Q 2425 2450 2075 2325 
Q 2425 2250 2625 1975 
Q 2825 1700 2825 1300 
z
" transform="scale(0.015625)"/>
       </defs>
       <use xlink:href="#SimHei-32"/>
       <use xlink:href="#SimHei-30" x="50"/>
       <use xlink:href="#SimHei-31" x="100"/>
       <use xlink:href="#SimHei-36" x="150"/>
       <use xlink:href="#SimHei-2d" x="200"/>
       <use xlink:href="#SimHei-30" x="250"/>
       <use xlink:href="#SimHei-33" x="300"/>
      </g>
     </g>
    </g>
    <g id="xtick_4">
     <g id="text_4">
      <!-- 2016-06 -->
      <g style="fill: #262626" transform="translate(259.661888 395.019531) scale(0.11 -0.11)">
       <use xlink:href="#SimHei-32"/>
       <use xlink:href="#SimHei-30" x="50"/>
       <use xlink:href="#SimHei-31" x="100"/>
       <use xlink:href="#SimHei-36" x="150"/>
       <use xlink:href="#SimHei-2d" x="200"/>
       <use xlink:href="#SimHei-30" x="250"/>
       <use xlink:href="#SimHei-36" x="300"/>
      </g>
     </g>
    </g>
    <g id="xtick_5">
     <g id="text_5">
      <!-- 2016-09 -->
      <g style="fill: #262626" transform="translate(306.487063 395.019531) scale(0.11 -0.11)">
       <use xlink:href="#SimHei-32"/>
       <use xlink:href="#SimHei-30" x="50"/>
       <use xlink:href="#SimHei-31" x="100"/>
       <use xlink:href="#SimHei-36" x="150"/>
       <use xlink:href="#SimHei-2d" x="200"/>
       <use xlink:href="#SimHei-30" x="250"/>
       <use xlink:href="#SimHei-39" x="300"/>
      </g>
     </g>
    </g>
    <g id="xtick_6">
     <g id="text_6">
      <!-- 2016-12 -->
      <g style="fill: #262626" transform="translate(353.312238 395.019531) scale(0.11 -0.11)">
       <use xlink:href="#SimHei-32"/>
       <use xlink:href="#SimHei-30" x="50"/>
       <use xlink:href="#SimHei-31" x="100"/>
       <use xlink:href="#SimHei-36" x="150"/>
       <use xlink:href="#SimHei-2d" x="200"/>
       <use xlink:href="#SimHei-31" x="250"/>
       <use xlink:href="#SimHei-32" x="300"/>
      </g>
     </g>
    </g>
    <g id="xtick_7">
     <g id="text_7">
      <!-- 2017-03 -->
      <g style="fill: #262626" transform="translate(400.137413 395.019531) scale(0.11 -0.11)">
       <defs>
        <path id="SimHei-37" d="M 2775 3850 
L 1600 100 
L 1025 100 
L 2225 3900 
L 400 3900 
L 400 4375 
L 2775 4375 
L 2775 3850 
z
" transform="scale(0.015625)"/>
       </defs>
       <use xlink:href="#SimHei-32"/>
       <use xlink:href="#SimHei-30" x="50"/>
       <use xlink:href="#SimHei-31" x="100"/>
       <use xlink:href="#SimHei-37" x="150"/>
       <use xlink:href="#SimHei-2d" x="200"/>
       <use xlink:href="#SimHei-30" x="250"/>
       <use xlink:href="#SimHei-33" x="300"/>
      </g>
     </g>
    </g>
    <g id="xtick_8">
     <g id="text_8">
      <!-- 2017-06 -->
      <g style="fill: #262626" transform="translate(446.962587 395.019531) scale(0.11 -0.11)">
       <use xlink:href="#SimHei-32"/>
       <use xlink:href="#SimHei-30" x="50"/>
       <use xlink:href="#SimHei-31" x="100"/>
       <use xlink:href="#SimHei-37" x="150"/>
       <use xlink:href="#SimHei-2d" x="200"/>
       <use xlink:href="#SimHei-30" x="250"/>
       <use xlink:href="#SimHei-36" x="300"/>
      </g>
     </g>
    </g>
    <g id="xtick_9">
     <g id="text_9">
      <!-- 2017-09 -->
      <g style="fill: #262626" transform="translate(493.787762 395.019531) scale(0.11 -0.11)">
       <use xlink:href="#SimHei-32"/>
       <use xlink:href="#SimHei-30" x="50"/>
       <use xlink:href="#SimHei-31" x="100"/>
       <use xlink:href="#SimHei-37" x="150"/>
       <use xlink:href="#SimHei-2d" x="200"/>
       <use xlink:href="#SimHei-30" x="250"/>
       <use xlink:href="#SimHei-39" x="300"/>
      </g>
     </g>
    </g>
    <g id="xtick_10">
     <g id="text_10">
      <!-- 2017-12 -->
      <g style="fill: #262626" transform="translate(540.612937 395.019531) scale(0.11 -0.11)">
       <use xlink:href="#SimHei-32"/>
       <use xlink:href="#SimHei-30" x="50"/>
       <use xlink:href="#SimHei-31" x="100"/>
       <use xlink:href="#SimHei-37" x="150"/>
       <use xlink:href="#SimHei-2d" x="200"/>
       <use xlink:href="#SimHei-31" x="250"/>
       <use xlink:href="#SimHei-32" x="300"/>
      </g>
     </g>
    </g>
    <g id="xtick_11">
     <g id="text_11">
      <!-- 2018-03 -->
      <g style="fill: #262626" transform="translate(587.438112 395.019531) scale(0.11 -0.11)">
       <defs>
        <path id="SimHei-38" d="M 2875 1325 
Q 2875 700 2525 375 
Q 2175 50 1575 50 
Q 975 50 625 375 
Q 275 700 275 1325 
Q 275 1650 475 1912 
Q 675 2175 1025 2300 
Q 725 2425 562 2650 
Q 400 2875 400 3225 
Q 400 3775 750 4100 
Q 1100 4425 1575 4425 
Q 2050 4425 2400 4100 
Q 2750 3775 2750 3225 
Q 2750 2875 2587 2650 
Q 2425 2425 2125 2300 
Q 2475 2175 2675 1912 
Q 2875 1650 2875 1325 
z
M 2200 3225 
Q 2200 3625 2025 3800 
Q 1850 3975 1575 3975 
Q 1300 3975 1125 3800 
Q 950 3625 950 3225 
Q 950 2825 1137 2662 
Q 1325 2500 1575 2500 
Q 1825 2500 2012 2662 
Q 2200 2825 2200 3225 
z
M 2300 1325 
Q 2300 1675 2112 1875 
Q 1925 2075 1575 2075 
Q 1225 2075 1037 1875 
Q 850 1675 850 1325 
Q 850 925 1050 712 
Q 1250 500 1575 500 
Q 1900 500 2100 712 
Q 2300 925 2300 1325 
z
" transform="scale(0.015625)"/>
       </defs>
       <use xlink:href="#SimHei-32"/>
       <use xlink:href="#SimHei-30" x="50"/>
       <use xlink:href="#SimHei-31" x="100"/>
       <use xlink:href="#SimHei-38" x="150"/>
       <use xlink:href="#SimHei-2d" x="200"/>
       <use xlink:href="#SimHei-30" x="250"/>
       <use xlink:href="#SimHei-33" x="300"/>
      </g>
     </g>
    </g>
    <g id="xtick_12">
     <g id="text_12">
      <!-- 2018-06 -->
      <g style="fill: #262626" transform="translate(634.263287 395.019531) scale(0.11 -0.11)">
       <use xlink:href="#SimHei-32"/>
       <use xlink:href="#SimHei-30" x="50"/>
       <use xlink:href="#SimHei-31" x="100"/>
       <use xlink:href="#SimHei-38" x="150"/>
       <use xlink:href="#SimHei-2d" x="200"/>
       <use xlink:href="#SimHei-30" x="250"/>
       <use xlink:href="#SimHei-36" x="300"/>
      </g>
     </g>
    </g>
    <g id="xtick_13">
     <g id="text_13">
      <!-- 2018-09 -->
      <g style="fill: #262626" transform="translate(681.088462 395.019531) scale(0.11 -0.11)">
       <use xlink:href="#SimHei-32"/>
       <use xlink:href="#SimHei-30" x="50"/>
       <use xlink:href="#SimHei-31" x="100"/>
       <use xlink:href="#SimHei-38" x="150"/>
       <use xlink:href="#SimHei-2d" x="200"/>
       <use xlink:href="#SimHei-30" x="250"/>
       <use xlink:href="#SimHei-39" x="300"/>
      </g>
     </g>
    </g>
    <g id="xtick_14">
     <g id="text_14">
      <!-- 2018-12 -->
      <g style="fill: #262626" transform="translate(727.913636 395.019531) scale(0.11 -0.11)">
       <use xlink:href="#SimHei-32"/>
       <use xlink:href="#SimHei-30" x="50"/>
       <use xlink:href="#SimHei-31" x="100"/>
       <use xlink:href="#SimHei-38" x="150"/>
       <use xlink:href="#SimHei-2d" x="200"/>
       <use xlink:href="#SimHei-31" x="250"/>
       <use xlink:href="#SimHei-32" x="300"/>
      </g>
     </g>
    </g>
    <g id="text_15">
     <!-- 月份 -->
     <g style="fill: #262626" transform="translate(428.8 411.429688) scale(0.14 -0.14)">
      <defs>
       <path id="SimHei-6708" d="M 2075 4375 
L 2075 3375 
L 4575 3375 
L 4575 4375 
L 2075 4375 
z
M 2075 2975 
L 2075 1975 
L 4575 1975 
L 4575 2975 
L 2075 2975 
z
M 1550 4775 
L 5100 4775 
Q 5075 4175 5075 3700 
L 5075 200 
Q 5075 -275 4837 -387 
Q 4600 -500 4100 -575 
Q 4050 -225 3875 75 
Q 4225 50 4400 62 
Q 4575 75 4575 375 
L 4575 1575 
L 2050 1575 
Q 2025 1275 1950 975 
Q 1875 675 1750 387 
Q 1625 100 1475 -162 
Q 1325 -425 1125 -625 
Q 900 -400 625 -300 
Q 1000 50 1225 512 
Q 1450 975 1525 1450 
Q 1600 1925 1587 2487 
Q 1575 3050 1575 3587 
Q 1575 4125 1550 4775 
z
" transform="scale(0.015625)"/>
       <path id="SimHei-4efd" d="M 4175 4925 
Q 4400 4950 4650 5025 
Q 4750 4325 5087 3625 
Q 5425 2925 6125 2500 
Q 5825 2350 5675 2050 
Q 5425 2275 5150 2550 
Q 5100 2225 5050 1275 
Q 5000 325 4950 -25 
Q 4900 -375 4625 -450 
Q 4350 -525 3900 -575 
Q 3850 -250 3675 50 
Q 4200 25 4350 62 
Q 4500 100 4537 600 
Q 4575 1100 4625 2225 
L 3700 2225 
Q 3650 1250 3425 650 
Q 3200 50 2500 -625 
Q 2250 -350 2000 -275 
Q 2700 175 2962 787 
Q 3225 1400 3250 2225 
Q 3000 2225 2775 2200 
L 2775 2650 
Q 2550 2275 2225 1900 
Q 1975 2175 1750 2300 
Q 2725 3125 3250 4925 
Q 3500 4800 3800 4700 
Q 3650 4475 3450 3950 
Q 3250 3425 2825 2675 
Q 3050 2650 3250 2650 
L 5100 2650 
Q 4425 3550 4175 4925 
z
M 600 2050 
Q 475 2250 225 2400 
Q 575 2775 1000 3612 
Q 1425 4450 1600 5225 
Q 1925 5100 2225 5000 
Q 2000 4675 1625 3675 
L 1625 625 
Q 1625 75 1650 -550 
L 1125 -550 
Q 1150 50 1150 625 
L 1150 2875 
Q 825 2350 600 2050 
z
" transform="scale(0.015625)"/>
      </defs>
      <use xlink:href="#SimHei-6708"/>
      <use xlink:href="#SimHei-4efd" x="100"/>
     </g>
    </g>
   </g>
   <g id="matplotlib.axis_2">
    <g id="ytick_1">
     <g id="text_16">
      <!-- 0.0 -->
      <g style="fill: #262626" transform="translate(82 367.838756) scale(0.11 -0.11)">
       <defs>
        <path id="SimHei-2e" d="M 1100 100 
L 525 100 
L 525 650 
L 1100 650 
L 1100 100 
z
" transform="scale(0.015625)"/>
       </defs>
       <use xlink:href="#SimHei-30"/>
       <use xlink:href="#SimHei-2e" x="50"/>
       <use xlink:href="#SimHei-30" x="100"/>
      </g>
     </g>
    </g>
    <g id="ytick_2">
     <g id="text_17">
      <!-- 0.2 -->
      <g style="fill: #262626" transform="translate(82 312.940746) scale(0.11 -0.11)">
       <use xlink:href="#SimHei-30"/>
       <use xlink:href="#SimHei-2e" x="50"/>
       <use xlink:href="#SimHei-32" x="100"/>
      </g>
     </g>
    </g>
    <g id="ytick_3">
     <g id="text_18">
      <!-- 0.4 -->
      <g style="fill: #262626" transform="translate(82 258.042737) scale(0.11 -0.11)">
       <defs>
        <path id="SimHei-34" d="M 2975 1200 
L 2450 1200 
L 2450 100 
L 1875 100 
L 1875 1200 
L 200 1200 
L 200 1675 
L 1875 4425 
L 2450 4425 
L 2450 1675 
L 2975 1675 
L 2975 1200 
z
M 1875 1675 
L 1875 3525 
L 750 1675 
L 1875 1675 
z
" transform="scale(0.015625)"/>
       </defs>
       <use xlink:href="#SimHei-30"/>
       <use xlink:href="#SimHei-2e" x="50"/>
       <use xlink:href="#SimHei-34" x="100"/>
      </g>
     </g>
    </g>
    <g id="ytick_4">
     <g id="text_19">
      <!-- 0.6 -->
      <g style="fill: #262626" transform="translate(82 203.144727) scale(0.11 -0.11)">
       <use xlink:href="#SimHei-30"/>
       <use xlink:href="#SimHei-2e" x="50"/>
       <use xlink:href="#SimHei-36" x="100"/>
      </g>
     </g>
    </g>
    <g id="ytick_5">
     <g id="text_20">
      <!-- 0.8 -->
      <g style="fill: #262626" transform="translate(82 148.246717) scale(0.11 -0.11)">
       <use xlink:href="#SimHei-30"/>
       <use xlink:href="#SimHei-2e" x="50"/>
       <use xlink:href="#SimHei-38" x="100"/>
      </g>
     </g>
    </g>
    <g id="ytick_6">
     <g id="text_21">
      <!-- 1.0 -->
      <g style="fill: #262626" transform="translate(82 93.348708) scale(0.11 -0.11)">
       <use xlink:href="#SimHei-31"/>
       <use xlink:href="#SimHei-2e" x="50"/>
       <use xlink:href="#SimHei-30" x="100"/>
      </g>
     </g>
    </g>
    <g id="text_22">
     <!-- 需求量 -->
     <g style="fill: #262626" transform="translate(76.195312 235.92) rotate(-90) scale(0.14 -0.14)">
      <defs>
       <path id="SimHei-9700" d="M 650 2075 
Q 1000 2050 1400 2050 
L 5100 2050 
Q 5450 2050 5900 2075 
L 5900 1675 
Q 5450 1700 5100 1700 
L 3425 1700 
Q 3325 1475 3275 1225 
L 5450 1225 
Q 5425 925 5425 675 
L 5425 -75 
Q 5400 -400 5250 -475 
Q 5100 -550 4625 -650 
Q 4550 -425 4425 -125 
Q 4875 -125 4925 -62 
Q 4975 0 4975 875 
L 4075 875 
L 4075 -400 
L 3625 -400 
L 3625 875 
L 2850 875 
L 2850 -400 
L 2400 -400 
L 2400 875 
L 1575 875 
L 1575 -600 
L 1100 -600 
Q 1125 -250 1125 150 
L 1125 550 
Q 1125 875 1100 1225 
L 2825 1225 
Q 2900 1475 2950 1700 
L 1425 1700 
Q 1025 1700 650 1675 
L 650 2075 
z
M 3850 2825 
L 5000 2825 
L 5000 2475 
L 3850 2475 
L 3850 2825 
z
M 1125 5050 
Q 1500 5025 1825 5025 
L 4675 5025 
Q 5050 5025 5500 5050 
L 5500 4650 
Q 5050 4675 4675 4675 
L 3500 4675 
L 3500 4225 
L 5900 4225 
Q 5875 3925 5875 3637 
Q 5875 3350 5900 3075 
L 5450 3075 
L 5450 3875 
L 3500 3875 
L 3500 3175 
Q 3500 2750 3525 2400 
L 3025 2400 
Q 3050 2725 3050 3150 
L 3050 3875 
L 1050 3875 
L 1050 3075 
L 600 3075 
Q 600 3350 612 3625 
Q 625 3900 600 4225 
L 3050 4225 
L 3050 4675 
L 1850 4675 
Q 1500 4675 1125 4650 
L 1125 5050 
z
M 1400 3475 
L 2550 3475 
L 2550 3125 
L 1400 3125 
L 1400 3475 
z
M 1325 2775 
L 2525 2775 
L 2525 2425 
L 1325 2425 
L 1325 2775 
z
M 3825 3500 
L 4975 3500 
L 4975 3150 
L 3825 3150 
L 3825 3500 
z
" transform="scale(0.015625)"/>
       <path id="SimHei-6c42" d="M 1375 3650 
Q 950 3650 550 3625 
L 550 4075 
Q 950 4050 1375 4050 
L 2900 4050 
Q 2900 4725 2875 5125 
L 3400 5125 
Q 3375 4725 3375 4050 
L 5100 4050 
Q 5425 4050 5850 4075 
L 5850 3625 
Q 5400 3650 5100 3650 
L 3375 3650 
Q 3400 3250 3612 2787 
Q 3825 2325 4025 2025 
Q 4475 2425 4950 3125 
Q 5125 2925 5425 2725 
Q 5225 2675 4225 1675 
Q 4525 1225 4975 850 
Q 5425 475 5975 325 
Q 5525 125 5475 -150 
Q 4950 150 4412 700 
Q 3875 1250 3375 2400 
L 3375 25 
Q 3400 -350 3150 -475 
Q 2900 -600 2400 -650 
Q 2350 -400 2175 -100 
Q 2575 -125 2750 -87 
Q 2925 -50 2900 175 
L 2900 1775 
Q 1925 975 1512 637 
Q 1100 300 825 50 
Q 675 300 400 500 
Q 750 675 1275 1037 
Q 1800 1400 2900 2350 
L 2900 3650 
L 1375 3650 
z
M 1025 2775 
Q 1200 2950 1375 3150 
Q 1825 2775 2275 2400 
L 1900 2000 
Q 1500 2400 1025 2775 
z
M 4100 4825 
Q 4300 4950 4475 5100 
Q 4850 4825 5175 4550 
Q 4950 4450 4750 4250 
Q 4475 4550 4100 4825 
z
" transform="scale(0.015625)"/>
       <path id="SimHei-91cf" d="M 3450 2175 
L 3450 1800 
L 4750 1800 
L 4750 2175 
L 3450 2175 
z
M 3450 1525 
L 3450 1175 
L 4750 1175 
L 4750 1525 
L 3450 1525 
z
M 1675 2175 
L 1675 1800 
L 3000 1800 
L 3000 2175 
L 1675 2175 
z
M 1675 1525 
L 1675 1175 
L 3000 1175 
L 3000 1525 
L 1675 1525 
z
M 1200 2450 
L 5250 2450 
Q 5200 2150 5200 1737 
Q 5200 1325 5250 900 
L 3450 900 
L 3450 500 
L 4600 500 
Q 5000 525 5375 525 
L 5375 175 
Q 5000 225 4600 225 
L 3450 225 
L 3450 -225 
L 5125 -225 
Q 5550 -200 5950 -200 
L 5950 -525 
Q 5550 -500 5125 -500 
L 1300 -500 
Q 900 -500 475 -525 
L 475 -200 
Q 925 -200 1300 -225 
L 3000 -225 
L 3000 225 
L 1750 225 
Q 1375 225 1000 175 
L 1000 525 
Q 1400 525 1750 500 
L 3000 500 
L 3000 900 
L 1200 900 
Q 1225 1300 1225 1712 
Q 1225 2125 1200 2450 
z
M 1675 4775 
L 1675 4350 
L 4750 4350 
L 4750 4775 
L 1675 4775 
z
M 1675 4075 
L 1675 3675 
L 4750 3675 
L 4750 4075 
L 1675 4075 
z
M 1200 5050 
L 5250 5050 
Q 5200 4650 5200 4300 
Q 5200 3950 5250 3400 
L 1200 3400 
Q 1225 3950 1212 4300 
Q 1200 4650 1200 5050 
z
M 475 3150 
Q 1100 3125 1750 3100 
L 4825 3100 
Q 5400 3125 5900 3150 
L 5900 2800 
Q 5400 2825 4850 2825 
L 1750 2825 
Q 1100 2825 475 2800 
L 475 3150 
z
" transform="scale(0.015625)"/>
      </defs>
      <use xlink:href="#SimHei-9700"/>
      <use xlink:href="#SimHei-6c42" x="100"/>
      <use xlink:href="#SimHei-91cf" x="200"/>
     </g>
    </g>
    <g id="text_23">
     <!-- 1e6 -->
     <g style="fill: #262626" transform="translate(108 48.84) scale(0.11 -0.11)">
      <defs>
       <path id="SimHei-65" d="M 2875 1050 
Q 2825 600 2475 325 
Q 2125 50 1650 50 
Q 1050 50 662 437 
Q 275 825 275 1500 
Q 275 2175 662 2562 
Q 1050 2950 1650 2950 
Q 2175 2950 2512 2612 
Q 2850 2275 2850 1500 
L 825 1500 
Q 825 950 1062 725 
Q 1300 500 1650 500 
Q 1925 500 2100 637 
Q 2275 775 2325 1050 
L 2875 1050 
z
M 2275 1900 
Q 2225 2250 2050 2387 
Q 1875 2525 1600 2525 
Q 1350 2525 1150 2387 
Q 950 2250 850 1900 
L 2275 1900 
z
" transform="scale(0.015625)"/>
      </defs>
      <use xlink:href="#SimHei-31"/>
      <use xlink:href="#SimHei-65" x="50"/>
      <use xlink:href="#SimHei-36" x="100"/>
     </g>
    </g>
   </g>
   <g id="line2d_1">
    <path d="M 138.436364 264.496471 
L 154.044755 273.465708 
L 169.653147 263.47976 
L 185.261538 229.720778 
L 200.86993 195.824825 
L 216.478322 332.873589 
L 232.086713 260.944295 
L 247.695105 274.759379 
L 263.303497 244.249262 
L 278.911888 274.796985 
L 294.52028 290.680351 
L 310.128671 249.635305 
L 325.737063 255.768237 
L 341.345455 197.473138 
L 356.953846 263.781425 
L 372.562238 234.76316 
L 388.170629 194.575072 
L 403.779021 238.390546 
L 419.387413 208.122803 
L 434.995804 213.063898 
L 450.604196 199.696233 
L 466.212587 246.45973 
L 481.820979 263.901651 
L 497.429371 223.712191 
L 513.037762 178.497916 
L 528.646154 145.940376 
L 544.254545 190.865888 
L 559.862937 203.157827 
L 575.471329 81.131904 
L 591.07972 363.174545 
L 606.688112 209.302561 
L 622.296503 236.902261 
L 637.904895 224.468136 
L 653.513287 291.834582 
L 669.121678 273.642754 
L 684.73007 244.289612 
L 700.338462 208.69237 
L 715.946853 167.962438 
L 731.555245 211.821007 
L 747.163636 226.222128 
" clip-path="url(#p4c6f202f68)" style="fill: none; stroke: #7fc97f; stroke-width: 2.5; stroke-linecap: round"/>
   </g>
   <g id="line2d_2">
    <path d="M 138.436364 300.591912 
L 154.044755 311.355491 
L 169.653147 298.313096 
L 185.261538 242.348144 
L 200.86993 228.679637 
L 216.478322 350.058587 
L 232.086713 277.307196 
L 247.695105 286.882781 
L 263.303497 286.665111 
L 278.911888 294.774645 
L 294.52028 334.681106 
L 310.128671 300.785428 
L 325.737063 283.733008 
L 341.345455 228.731516 
L 356.953846 253.250888 
L 372.562238 212.863795 
L 388.170629 228.725202 
L 403.779021 290.568359 
L 419.387413 223.142075 
L 434.995804 238.699073 
L 450.604196 266.4319 
L 466.212587 281.255735 
L 481.820979 310.853448 
L 497.429371 274.089624 
L 513.037762 224.993236 
L 528.646154 256.103938 
L 544.254545 203.296719 
L 559.862937 199.204621 
L 575.471329 156.330648 
L 591.07972 246.638972 
L 606.688112 217.130743 
L 622.296503 264.214021 
L 637.904895 249.17773 
L 653.513287 296.775403 
L 669.121678 305.336747 
L 684.73007 265.356723 
L 700.338462 241.099214 
L 715.946853 242.315205 
L 731.555245 187.599457 
L 747.163636 241.11184 
" clip-path="url(#p4c6f202f68)" style="fill: none; stroke: #beaed4; stroke-width: 2.5; stroke-linecap: round"/>
   </g>
   <g id="line2d_3">
    <path d="M 138.436364 299.865886 
L 154.044755 258.136811 
L 169.653147 273.443474 
L 185.261538 242.386023 
L 200.86993 217.608356 
L 216.478322 273.795096 
L 232.086713 225.909758 
L 247.695105 266.123099 
L 263.303497 226.776598 
L 278.911888 262.578609 
L 294.52028 282.727002 
L 310.128671 243.371442 
L 325.737063 269.158959 
L 341.345455 192.298726 
L 356.953846 267.933635 
L 372.562238 222.016117 
L 388.170629 336.919023 
L 403.779021 228.058741 
L 419.387413 137.2212 
L 434.995804 174.806848 
L 450.604196 202.687077 
L 466.212587 209.578424 
L 481.820979 227.833384 
L 497.429371 178.019205 
L 513.037762 145.460842 
L 528.646154 66.665455 
L 544.254545 167.83233 
L 559.862937 232.12586 
L 575.471329 181.811559 
L 591.07972 270.855033 
L 606.688112 136.155081 
L 622.296503 227.948945 
L 637.904895 217.919078 
L 653.513287 295.567921 
L 669.121678 281.664726 
L 684.73007 222.149244 
L 700.338462 178.528384 
L 715.946853 126.097216 
L 731.555245 189.733891 
" clip-path="url(#p4c6f202f68)" style="fill: none; stroke: #fdc086; stroke-width: 2.5; stroke-linecap: round"/>
   </g>
   <g id="line2d_4"/>
   <g id="line2d_5"/>
   <g id="line2d_6"/>
   <g id="patch_3">
    <path d="M 108 378 
L 108 51.84 
" style="fill: none; stroke: #cccccc; stroke-width: 1.25; stroke-linejoin: miter; stroke-linecap: square"/>
   </g>
   <g id="patch_4">
    <path d="M 108 378 
L 777.6 378 
" style="fill: none; stroke: #cccccc; stroke-width: 1.25; stroke-linejoin: miter; stroke-linecap: square"/>
   </g>
   <g id="text_24">
    <!-- 不同时期需求量分析 -->
    <g style="fill: #262626" transform="translate(370.8 45.84) scale(0.16 -0.16)">
     <defs>
      <path id="SimHei-4e0d" d="M 5225 4750 
Q 5550 4750 5925 4800 
L 5925 4250 
Q 5575 4300 5250 4300 
L 3950 4300 
Q 3700 3675 3400 3175 
L 3400 300 
Q 3400 -100 3450 -475 
L 2850 -475 
Q 2900 -125 2900 300 
L 2900 2625 
Q 1875 1550 850 925 
Q 625 1275 400 1400 
Q 1025 1600 1900 2325 
Q 2775 3050 3350 4300 
L 1425 4300 
Q 950 4300 525 4275 
L 525 4800 
Q 1175 4750 1575 4750 
L 5225 4750 
z
M 6000 1400 
Q 5650 1175 5500 975 
Q 5100 1475 3825 2700 
Q 4075 2850 4250 3075 
Q 4925 2475 5212 2175 
Q 5500 1875 6000 1400 
z
" transform="scale(0.015625)"/>
      <path id="SimHei-540c" d="M 1700 3675 
Q 1950 3650 2500 3650 
L 4025 3650 
Q 4475 3650 4675 3675 
L 4675 3200 
Q 4450 3225 4000 3225 
L 2475 3225 
Q 1925 3225 1700 3200 
L 1700 3675 
z
M 2075 2525 
L 4275 2525 
Q 4250 2225 4250 1687 
Q 4250 1150 4275 800 
L 2075 800 
Q 2075 1175 2075 1725 
Q 2075 2275 2075 2525 
z
M 2550 2100 
L 2550 1225 
L 3775 1225 
L 3775 2100 
L 2550 2100 
z
M 750 4800 
L 5625 4800 
Q 5600 4450 5600 3875 
L 5600 -25 
Q 5600 -350 5362 -437 
Q 5125 -525 4600 -575 
Q 4600 -350 4400 -25 
Q 4800 -50 4937 -37 
Q 5075 -25 5100 225 
L 5100 4350 
L 1275 4350 
L 1275 -550 
L 725 -550 
Q 750 -200 775 225 
L 775 3875 
Q 775 4475 750 4800 
z
" transform="scale(0.015625)"/>
      <path id="SimHei-65f6" d="M 2800 3825 
Q 3550 3800 4775 3800 
Q 4775 4550 4750 5200 
L 5275 5200 
Q 5250 4550 5250 3800 
Q 5600 3800 6000 3825 
L 6000 3350 
Q 5600 3375 5250 3375 
L 5250 25 
Q 5250 -350 4962 -450 
Q 4675 -550 4225 -600 
Q 4225 -300 3975 -25 
Q 4425 -75 4600 -50 
Q 4775 -25 4775 275 
L 4775 3375 
Q 3600 3375 2800 3350 
L 2800 3825 
z
M 3075 2475 
Q 3300 2575 3525 2700 
Q 3825 2175 4125 1575 
Q 3875 1500 3625 1350 
Q 3425 1950 3075 2475 
z
M 625 4550 
L 2575 4550 
Q 2550 3650 2550 2375 
Q 2550 1100 2575 375 
L 2075 375 
L 2075 850 
L 1125 850 
L 1125 25 
L 625 25 
Q 650 1175 650 2337 
Q 650 3500 625 4550 
z
M 1125 4125 
L 1125 2950 
L 2075 2950 
L 2075 4125 
L 1125 4125 
z
M 1125 2525 
L 1125 1275 
L 2075 1275 
L 2075 2525 
L 1125 2525 
z
" transform="scale(0.015625)"/>
      <path id="SimHei-671f" d="M 1500 3900 
L 1500 3350 
L 2475 3350 
L 2475 3900 
L 1500 3900 
z
M 1175 1000 
L 1650 700 
Q 1500 625 1237 262 
Q 975 -100 750 -375 
Q 500 -200 325 -100 
Q 550 75 787 387 
Q 1025 700 1175 1000 
z
M 1500 2975 
L 1500 2450 
L 2475 2450 
L 2475 2975 
L 1500 2975 
z
M 1500 2075 
L 1500 1525 
L 2475 1525 
L 2475 2075 
L 1500 2075 
z
M 3000 475 
Q 2825 300 2700 100 
Q 2375 525 2100 700 
Q 2275 875 2375 1050 
Q 2750 675 3000 475 
z
M 525 4300 
Q 800 4275 1050 4275 
Q 1050 4750 1025 5100 
L 1550 5100 
Q 1500 4800 1500 4275 
L 2475 4275 
Q 2475 4750 2450 5100 
L 2975 5100 
Q 2900 4800 2925 4275 
Q 3125 4275 3400 4300 
L 3400 3875 
Q 3150 3900 2925 3900 
L 2925 1525 
Q 3150 1525 3400 1550 
L 3400 1125 
Q 3025 1150 2700 1150 
L 1100 1150 
Q 775 1150 375 1125 
L 375 1550 
Q 750 1525 1050 1525 
L 1050 3900 
Q 825 3900 525 3875 
L 525 4300 
z
M 4925 -625 
Q 4925 -350 4725 -50 
Q 5300 -125 5250 150 
L 5250 1550 
L 4125 1550 
Q 4075 950 3862 400 
Q 3650 -150 3250 -625 
Q 3075 -400 2800 -300 
Q 3225 125 3425 600 
Q 3625 1075 3662 1550 
Q 3700 2025 3700 3112 
Q 3700 4200 3675 4850 
L 5725 4850 
Q 5700 4375 5700 3700 
L 5700 25 
Q 5700 -325 5500 -450 
Q 5300 -575 4925 -625 
z
M 4150 4475 
L 4150 3350 
L 5250 3350 
L 5250 4475 
L 4150 4475 
z
M 4150 2975 
L 4150 1925 
L 5250 1925 
L 5250 2975 
L 4150 2975 
z
" transform="scale(0.015625)"/>
      <path id="SimHei-5206" d="M 2900 2150 
Q 2850 1575 2712 1150 
Q 2575 725 2325 425 
Q 2075 125 1750 -100 
Q 1425 -325 1075 -525 
Q 900 -250 625 -75 
Q 1025 75 1325 250 
Q 1625 425 1862 675 
Q 2100 925 2225 1262 
Q 2350 1600 2400 2150 
Q 1850 2150 1575 2125 
L 1575 2600 
Q 1925 2575 2475 2575 
L 4900 2575 
Q 4850 2250 4825 2000 
L 4625 275 
Q 4575 -225 4250 -325 
Q 3925 -425 3525 -500 
Q 3450 -175 3275 125 
Q 3750 125 3925 150 
Q 4100 175 4150 500 
L 4325 2150 
L 2900 2150 
z
M 2375 4925 
Q 2650 4775 2950 4650 
Q 2800 4500 2600 4187 
Q 2400 3875 2137 3512 
Q 1875 3150 1562 2775 
Q 1250 2400 900 2075 
Q 650 2325 350 2475 
Q 775 2750 1087 3050 
Q 1400 3350 1737 3812 
Q 2075 4275 2375 4925 
z
M 3600 4900 
Q 3875 4950 4125 5025 
Q 4200 4700 4387 4337 
Q 4575 3975 4850 3637 
Q 5125 3300 5450 3050 
Q 5775 2800 6100 2700 
Q 5825 2525 5625 2150 
Q 5200 2475 4900 2775 
Q 4600 3075 4412 3325 
Q 4225 3575 3987 4012 
Q 3750 4450 3600 4900 
z
" transform="scale(0.015625)"/>
      <path id="SimHei-6790" d="M 1925 3400 
L 1925 500 
Q 1925 175 1950 -550 
L 1425 -550 
Q 1450 0 1450 500 
L 1450 2225 
Q 1175 1550 700 775 
Q 475 1025 275 1175 
Q 775 1850 1037 2437 
Q 1300 3025 1400 3400 
Q 950 3400 500 3375 
L 500 3825 
Q 950 3800 1450 3800 
L 1450 4425 
Q 1450 4750 1425 5100 
L 1975 5100 
Q 1925 4800 1925 4425 
L 1925 3800 
Q 2325 3800 2775 3825 
L 2775 3375 
Q 2325 3400 1925 3400 
z
M 5475 5025 
Q 5625 4725 5850 4425 
Q 5525 4425 5000 4375 
Q 4475 4325 3725 4250 
L 3725 3150 
L 5375 3150 
Q 5675 3150 6100 3175 
L 6100 2725 
Q 5650 2750 5225 2750 
L 5225 325 
Q 5225 -125 5250 -500 
L 4725 -500 
Q 4750 -100 4750 350 
L 4750 2750 
L 3725 2750 
Q 3725 2150 3650 1612 
Q 3575 1075 3437 612 
Q 3300 150 2850 -525 
Q 2675 -325 2300 -175 
Q 2800 275 3037 1100 
Q 3275 1925 3250 3000 
Q 3225 4075 3200 4625 
Q 3975 4675 4550 4775 
Q 5125 4875 5475 5025 
z
M 2025 2375 
Q 2250 2475 2450 2600 
Q 2525 2475 2650 2237 
Q 2775 2000 2925 1750 
Q 2700 1650 2475 1475 
Q 2350 1850 2025 2375 
z
" transform="scale(0.015625)"/>
     </defs>
     <use xlink:href="#SimHei-4e0d"/>
     <use xlink:href="#SimHei-540c" x="100"/>
     <use xlink:href="#SimHei-65f6" x="200"/>
     <use xlink:href="#SimHei-671f" x="300"/>
     <use xlink:href="#SimHei-9700" x="400"/>
     <use xlink:href="#SimHei-6c42" x="500"/>
     <use xlink:href="#SimHei-91cf" x="600"/>
     <use xlink:href="#SimHei-5206" x="700"/>
     <use xlink:href="#SimHei-6790" x="800"/>
    </g>
   </g>
   <g id="legend_1">
    <g id="patch_5">
     <path d="M 712.7 107.04625 
L 769.9 107.04625 
Q 772.1 107.04625 772.1 104.84625 
L 772.1 59.54 
Q 772.1 57.34 769.9 57.34 
L 712.7 57.34 
Q 710.5 57.34 710.5 59.54 
L 710.5 104.84625 
Q 710.5 107.04625 712.7 107.04625 
z
" style="fill: #ffffff; opacity: 0.8; stroke: #cccccc; stroke-linejoin: miter"/>
    </g>
    <g id="line2d_7">
     <path d="M 714.9 66.440781 
L 725.9 66.440781 
L 736.9 66.440781 
" style="fill: none; stroke: #7fc97f; stroke-width: 1.5; stroke-linecap: round"/>
    </g>
    <g id="text_25">
     <!-- 月中 -->
     <g style="fill: #262626" transform="translate(745.7 70.290781) scale(0.11 -0.11)">
      <defs>
       <path id="SimHei-4e2d" d="M 2925 3925 
Q 2925 4550 2900 5175 
L 3450 5175 
Q 3425 4600 3425 3925 
L 5500 3925 
Q 5475 3425 5475 2550 
Q 5475 1675 5500 1150 
L 4975 1150 
L 4975 1575 
L 3425 1575 
L 3425 450 
Q 3425 100 3450 -525 
L 2875 -525 
Q 2925 25 2925 450 
L 2925 1575 
L 1425 1575 
L 1425 1125 
L 900 1125 
Q 925 1625 925 2550 
Q 925 3475 900 3925 
L 2925 3925 
z
M 1425 3525 
L 1425 1975 
L 2925 1975 
L 2925 3525 
L 1425 3525 
z
M 3425 3525 
L 3425 1975 
L 4950 1975 
L 4950 3525 
L 3425 3525 
z
" transform="scale(0.015625)"/>
      </defs>
      <use xlink:href="#SimHei-6708"/>
      <use xlink:href="#SimHei-4e2d" x="100"/>
     </g>
    </g>
    <g id="line2d_8">
     <path d="M 714.9 81.823594 
L 725.9 81.823594 
L 736.9 81.823594 
" style="fill: none; stroke-dasharray: 6,2.25; stroke-dashoffset: 0; stroke: #beaed4; stroke-width: 1.5"/>
    </g>
    <g id="text_26">
     <!-- 月初 -->
     <g style="fill: #262626" transform="translate(745.7 85.673594) scale(0.11 -0.11)">
      <defs>
       <path id="SimHei-521d" d="M 1375 4950 
Q 1675 5050 1875 5125 
Q 2050 4725 2225 4325 
Q 2000 4250 1725 4125 
Q 1575 4575 1375 4950 
z
M 575 3900 
Q 925 3875 1325 3875 
L 2575 3875 
Q 2475 3625 2312 3287 
Q 2150 2950 1900 2550 
Q 2050 2425 2200 2275 
Q 2375 2450 2512 2600 
Q 2650 2750 2800 2975 
Q 2950 2800 3200 2575 
Q 3000 2475 2837 2337 
Q 2675 2200 2500 2025 
Q 2625 1900 2762 1762 
Q 2900 1625 3100 1450 
Q 2850 1250 2675 1075 
Q 2450 1400 2275 1587 
Q 2100 1775 1875 2000 
L 1875 325 
Q 1875 -50 1900 -550 
L 1375 -550 
Q 1425 -25 1425 325 
L 1425 2025 
Q 1225 1775 1012 1575 
Q 800 1375 575 1175 
Q 400 1450 225 1650 
Q 675 1900 1137 2350 
Q 1600 2800 1900 3450 
L 1350 3450 
Q 925 3450 575 3425 
L 575 3900 
z
M 5950 4450 
L 5750 625 
Q 5700 -75 5425 -212 
Q 5150 -350 4450 -475 
Q 4375 -150 4225 150 
Q 4925 150 5087 225 
Q 5250 300 5275 750 
L 5450 4025 
L 4375 4025 
Q 4350 3325 4300 2712 
Q 4250 2100 4112 1562 
Q 3975 1025 3662 537 
Q 3350 50 2825 -475 
Q 2650 -300 2350 -125 
Q 2850 250 3137 637 
Q 3425 1025 3587 1487 
Q 3750 1950 3825 2575 
Q 3900 3200 3925 4025 
Q 3400 4025 3050 4000 
L 3050 4500 
Q 3400 4450 3925 4450 
L 5950 4450 
z
" transform="scale(0.015625)"/>
      </defs>
      <use xlink:href="#SimHei-6708"/>
      <use xlink:href="#SimHei-521d" x="100"/>
     </g>
    </g>
    <g id="line2d_9">
     <path d="M 714.9 97.378281 
L 725.9 97.378281 
L 736.9 97.378281 
" style="fill: none; stroke-dasharray: 1.5,1.5; stroke-dashoffset: 0; stroke: #fdc086; stroke-width: 1.5"/>
    </g>
    <g id="text_27">
     <!-- 月末 -->
     <g style="fill: #262626" transform="translate(745.7 101.228281) scale(0.11 -0.11)">
      <defs>
       <path id="SimHei-672b" d="M 6075 325 
Q 5800 200 5600 -175 
Q 5075 75 4712 400 
Q 4350 725 4075 1050 
Q 3800 1375 3500 2050 
L 3500 300 
Q 3500 -350 3525 -650 
L 2950 -650 
Q 3000 -375 3000 300 
L 3000 2050 
Q 2800 1675 2562 1350 
Q 2325 1025 2037 737 
Q 1750 450 1437 200 
Q 1125 -50 750 -275 
Q 700 -100 350 200 
Q 800 400 1137 637 
Q 1475 875 1750 1137 
Q 2025 1400 2212 1675 
Q 2400 1950 2550 2225 
L 1750 2225 
Q 1275 2225 975 2200 
L 975 2675 
Q 1275 2650 1750 2650 
L 3000 2650 
L 3000 3675 
L 1550 3675 
Q 1050 3675 650 3650 
L 650 4125 
Q 1025 4100 1525 4100 
L 3000 4100 
L 3000 4500 
Q 3000 4900 2950 5200 
L 3550 5200 
Q 3475 5000 3500 4525 
L 3500 4100 
L 5000 4100 
Q 5400 4100 5750 4125 
L 5750 3650 
Q 5400 3675 5050 3675 
L 3500 3675 
L 3500 2650 
L 4625 2650 
Q 5050 2650 5400 2675 
L 5400 2175 
Q 5000 2225 4600 2225 
L 3850 2225 
Q 4025 1850 4312 1512 
Q 4600 1175 4875 962 
Q 5150 750 5450 600 
Q 5750 450 6075 325 
z
" transform="scale(0.015625)"/>
      </defs>
      <use xlink:href="#SimHei-6708"/>
      <use xlink:href="#SimHei-672b" x="100"/>
     </g>
    </g>
   </g>
  </g>
 </g>
 <defs>
  <clipPath id="p4c6f202f68">
   <rect x="108" y="51.84" width="669.6" height="326.16"/>
  </clipPath>
 </defs>
</svg>
